<svg width="100" height="113" viewBox="0 0 100 113" fill="none" xmlns="http://www.w3.org/2000/svg">
<g clip-path="url(#clip0_85_31)">
<path d="M86.3925 52.063C86.0222 51.1604 85.675 50.2116 85.3048 49.4017L83.5923 45.537L83.5229 45.4676C78.4317 34.3596 72.9934 23.0665 67.2312 11.9585L66.9998 11.4956C66.4212 10.408 65.8426 9.20461 65.241 8.09381C64.5004 6.77474 63.7831 5.36309 62.6028 4.02088C57.6958 -1.96952 48.5338 -1.96952 43.6267 4.02088C42.539 5.36309 41.7291 6.77474 40.9885 8.09381C40.41 9.29718 39.8315 10.4774 39.2298 11.5651L38.9983 12.0279C33.3286 23.1359 27.7978 34.429 22.7066 45.537L22.5678 45.6759C22.0587 46.8792 21.4569 48.1289 20.8784 49.4711C20.5082 50.2811 20.1379 51.1604 19.7676 52.1324C15.3924 63.2718 24.5603 75.0246 36.4297 73.4922C39.0295 73.1499 41.533 72.2839 43.7887 70.9466C46.7971 69.2572 49.6898 66.8042 52.9297 63.2635C56.1694 66.8042 59.1316 69.2572 62.0706 70.9697C64.8969 72.6286 68.0975 73.5442 71.3735 73.631C79.2182 73.6637 85.8851 67.9054 86.9941 60.1394C87.614 57.4406 87.4043 54.6175 86.3925 52.0398V52.063ZM53.161 55.9045C49.1807 50.8133 46.5888 46.1387 45.7094 42.1352C45.3451 40.6517 45.2665 39.1123 45.478 37.5994C45.64 36.4192 46.0797 35.3778 46.6814 34.4985C48.0699 32.4851 50.4998 31.2355 53.161 31.2355C55.7283 31.157 58.163 32.3744 59.6407 34.4753C60.2424 35.401 60.682 36.4192 60.8209 37.5994C61.0523 38.9417 60.9598 40.4921 60.5895 42.1352C59.7101 46.0693 57.1183 50.7902 53.161 55.9045ZM82.6435 59.3294C82.1085 63.2096 79.5532 66.5137 75.9324 68.0076C74.1737 68.7481 72.2298 68.9564 70.3322 68.7481C68.4808 68.5167 66.6295 67.915 64.7319 66.8042C61.5811 64.8568 58.748 62.4374 56.3314 59.6303C61.1912 53.6135 64.1302 48.1289 65.241 43.246C65.7732 40.9318 65.8426 38.8491 65.6113 36.9283C65.3223 35.1077 64.6434 33.3711 63.6211 31.8372C61.2507 28.4596 57.3561 26.4819 53.2305 26.5609C48.9493 26.5609 45.1309 28.551 42.8167 31.814C41.775 33.344 41.1017 35.0946 40.8496 36.9283C40.5488 38.8722 40.6183 41.0244 41.2199 43.246C42.3307 48.1289 45.3391 53.6829 50.1295 59.6766C47.754 62.5373 44.9142 64.978 41.7291 66.8968C39.8083 68.0076 37.9801 68.5861 36.1288 68.8175C30.1365 69.5851 24.6442 65.3832 23.8174 59.3989C23.586 57.5476 23.748 55.6962 24.4885 53.6135C24.7199 52.8729 25.067 52.1324 25.4373 51.253C25.9464 50.0497 26.5481 48.8 27.1267 47.5503L27.2192 47.3884C32.2178 36.3498 37.6792 25.0798 43.349 14.0412L43.5804 13.5784C44.1589 12.4676 44.7375 11.2874 45.3391 10.1766C45.9408 8.99633 46.5888 7.8624 47.4219 6.93673C50.4927 3.27105 56.1303 3.27105 59.201 6.93673C60.011 7.8624 60.682 8.99633 61.2838 10.1766C61.8623 11.2874 62.4409 12.4907 63.0425 13.5784L63.2739 14.0412C68.9205 25.0798 74.3819 36.3498 79.4731 47.3884L79.5425 47.4578C80.1442 48.6611 80.6534 50.0034 81.2319 51.1604C81.6022 52.063 81.9724 52.7804 82.2038 53.544C82.6435 55.6268 82.8749 57.4781 82.6435 59.3294V59.3294Z" fill="white"/>
<path d="M14.395 102.471C12.2348 102.503 10.1777 101.55 8.80511 99.8813C7.28249 98.1265 6.47446 95.8638 6.5409 93.5415C6.5176 91.1686 7.35177 88.867 8.89002 87.0601C10.3304 85.3717 12.4446 84.4079 14.6638 84.4279C16.7608 84.3705 18.7396 85.3973 19.8998 87.145L20.0414 84.9232H24.1736V102.018H20.0272L19.8857 99.5275C18.6893 101.394 16.6116 102.508 14.395 102.471ZM15.4705 98.3954C16.2913 98.3954 17.0129 98.169 17.6922 97.7586C18.3149 97.3058 18.8243 96.7114 19.2206 95.9897C19.5743 95.268 19.7584 94.4047 19.7584 93.4424C19.8706 91.7422 19.0805 90.1082 17.6781 89.1404C16.3268 88.2984 14.6142 88.2984 13.2628 89.1404C12.6402 89.5932 12.1307 90.1876 11.7345 90.9093C11.3602 91.7052 11.1761 92.5773 11.1967 93.4566C11.0845 95.1568 11.8746 96.7908 13.277 97.7586C13.9421 98.169 14.6638 98.3954 15.4705 98.3954V98.3954ZM31.2494 80.3099C31.2494 80.8052 31.1644 81.258 30.938 81.6259C30.7116 81.9797 30.4003 82.3052 29.9899 82.5316C29.5795 82.7581 29.1408 82.843 28.6879 82.843C28.2351 82.843 27.7822 82.7581 27.3718 82.5316C26.9837 82.3156 26.6573 82.0038 26.4237 81.6259C26.2045 81.2228 26.0971 80.7685 26.1123 80.3099C26.1123 79.8004 26.2114 79.3476 26.4237 78.9938C26.6501 78.5692 26.9756 78.3145 27.3718 78.0881C27.7822 77.8617 28.221 77.7626 28.6879 77.7626C29.6043 77.7414 30.4642 78.2037 30.9522 78.9796C31.1581 79.3922 31.2601 79.8489 31.2494 80.3099V80.3099ZM26.4378 101.962V84.8949H30.938V101.99H26.4237L26.4378 101.962ZM42.9667 89.3668V89.4234C42.7545 89.3243 42.4715 89.2819 42.2592 89.2394C41.9762 89.1828 41.7497 89.1828 41.4808 89.1828C40.2214 89.1828 39.2732 89.5508 38.6506 90.3149C37.9713 91.0933 37.6599 92.1829 37.6599 93.5839V101.976H33.1456V84.8808H37.292L37.4335 87.4705C37.8864 86.5648 38.4241 85.8855 39.1883 85.3761C39.9484 84.8811 40.8433 84.6339 41.7497 84.6685C42.0752 84.6685 42.3865 84.6968 42.6554 84.7534C42.7969 84.7959 42.8819 84.7959 42.9667 84.8383V89.3668ZM44.7781 101.962V77.8758H49.2783V87.0743C49.9151 86.2535 50.6368 85.6167 51.5425 85.1214C54.4941 83.6742 58.053 84.441 60.1466 86.9752C61.6726 88.7337 62.4809 91.002 62.4109 93.3292C62.4342 95.7021 61.6 98.0036 60.0618 99.8106C58.6213 101.499 56.5072 102.463 54.2879 102.443C52.1909 102.5 50.2122 101.473 49.0519 99.7257L48.9104 101.947L44.7781 101.99V101.962ZM53.4813 98.3954C54.2879 98.3954 55.0097 98.169 55.6889 97.7586C56.3116 97.3058 56.8211 96.7114 57.2173 95.9897C57.5852 95.268 57.755 94.4047 57.755 93.4424C57.755 92.4943 57.5852 91.631 57.2173 90.9093C56.8457 90.2134 56.3236 89.6091 55.6889 89.1404C54.3376 88.2984 52.625 88.2984 51.2736 89.1404C50.6368 89.5932 50.1415 90.1876 49.7311 90.9093C49.357 91.7052 49.1728 92.5773 49.1934 93.4566C49.0812 95.1568 49.8713 96.7908 51.2736 97.7586C51.9388 98.169 52.6605 98.3954 53.4813 98.3954V98.3954ZM64.109 101.976V84.8808H68.2554L68.397 87.1026C69.458 85.3683 71.3752 84.3447 73.4066 84.4279C75.7388 84.3877 77.8684 85.7479 78.8124 87.8809C79.3077 88.9564 79.5766 90.2866 79.5766 91.7725V102.018H75.0622V92.3669C75.0622 91.1782 74.7934 90.2442 74.2556 89.5508C73.7179 88.8715 72.982 88.5036 72.048 88.5036C71.3688 88.5036 70.7744 88.6451 70.2508 88.9564C69.7554 89.2819 69.3451 89.6923 69.0338 90.2725C68.719 90.859 68.5629 91.5175 68.5809 92.1829V101.976H64.109ZM81.8266 101.976V77.8617H86.341V87.0601C87.5808 85.3867 89.5368 84.3955 91.6195 84.3855C93.7796 84.3539 95.8368 85.3069 97.2093 86.9752C98.7244 88.7336 99.527 90.995 99.4594 93.3151C99.4841 95.6882 98.6496 97.9902 97.1103 99.7964C95.6699 101.485 93.5557 102.449 91.3365 102.429C89.2394 102.486 87.2607 101.459 86.1004 99.7115L85.9731 101.933L81.8266 101.976ZM90.5723 98.3954C91.3931 98.3954 92.1148 98.169 92.7799 97.7586C93.4167 97.3058 93.912 96.7114 94.3224 95.9897C94.6762 95.268 94.8602 94.4047 94.8602 93.4424C94.9724 91.7422 94.1822 90.1082 92.7799 89.1404C91.4286 88.2984 89.716 88.2984 88.3646 89.1404C87.742 89.5932 87.2325 90.1876 86.8363 90.9093C86.4413 91.6981 86.2561 92.5754 86.2985 93.4566C86.1863 95.1568 86.9764 96.7908 88.3788 97.7586C89.0439 98.169 89.7232 98.3954 90.5723 98.3954V98.3954Z" fill="white"/>
</g>
<defs>
<clipPath id="clip0_85_31">
<rect width="100" height="113" fill="white"/>
</clipPath>
</defs>
</svg>
