<svg width="20" height="15" viewBox="0 0 20 15" fill="none" xmlns="http://www.w3.org/2000/svg">
<path d="M1 6.5C0.447715 6.5 0 6.94772 0 7.5C0 8.05228 0.447715 8.5 1 8.5V6.5ZM19.3943 8.20711C19.7848 7.81658 19.7848 7.18342 19.3943 6.79289L13.0303 0.428932C12.6398 0.0384078 12.0066 0.0384078 11.6161 0.428932C11.2256 0.819457 11.2256 1.45262 11.6161 1.84315L17.273 7.5L11.6161 13.1569C11.2256 13.5474 11.2256 14.1805 11.6161 14.5711C12.0066 14.9616 12.6398 14.9616 13.0303 14.5711L19.3943 8.20711ZM1 8.5H18.6872V6.5H1V8.5Z" fill="white"/>
</svg>
