<svg width="12" height="12" viewBox="0 0 12 12" fill="none" xmlns="http://www.w3.org/2000/svg">
<path d="M6.00033 8.33335C7.28899 8.33335 8.33366 7.28869 8.33366 6.00002C8.33366 4.71136 7.28899 3.66669 6.00033 3.66669C4.71166 3.66669 3.66699 4.71136 3.66699 6.00002C3.66699 7.28869 4.71166 8.33335 6.00033 8.33335Z" stroke="#0279F1" stroke-linecap="round" stroke-linejoin="round"/>
<path d="M8.33333 6.00003V6.87503C8.33333 7.26181 8.48698 7.63274 8.76047 7.90623C9.03396 8.17972 9.40489 8.33337 9.79167 8.33337C10.1784 8.33337 10.5494 8.17972 10.8229 7.90623C11.0964 7.63274 11.25 7.26181 11.25 6.87503V6.00003C11.2514 4.87193 10.8895 3.77336 10.2177 2.86706C9.54598 1.96077 8.60016 1.29496 7.52039 0.968257C6.44063 0.64156 5.28435 0.671354 4.22284 1.05323C3.16133 1.4351 2.25106 2.14874 1.62687 3.08843C1.00268 4.02812 0.697775 5.14387 0.757322 6.2704C0.816868 7.39694 1.2377 8.47433 1.95747 9.34298C2.67725 10.2116 3.65768 10.8253 4.75353 11.0932C5.84938 11.361 7.00236 11.2687 8.04167 10.83" stroke="#0279F1" stroke-linecap="round" stroke-linejoin="round"/>
</svg>
