<svg width="12" height="12" viewBox="0 0 12 12" fill="none" xmlns="http://www.w3.org/2000/svg">
<g clip-path="url(#clip0_39_13)">
<path d="M6.00008 8.33334C7.28875 8.33334 8.33342 7.28867 8.33342 6.00001C8.33342 4.71134 7.28875 3.66667 6.00008 3.66667C4.71142 3.66667 3.66675 4.71134 3.66675 6.00001C3.66675 7.28867 4.71142 8.33334 6.00008 8.33334Z" stroke="white" stroke-width="0.5" stroke-linecap="round" stroke-linejoin="round"/>
<path d="M8.33333 6V6.875C8.33333 7.26178 8.48698 7.63271 8.76047 7.9062C9.03396 8.17969 9.40489 8.33334 9.79167 8.33334C10.1784 8.33334 10.5494 8.17969 10.8229 7.9062C11.0964 7.63271 11.25 7.26178 11.25 6.875V6C11.2514 4.8719 10.8895 3.77333 10.2177 2.86703C9.54598 1.96074 8.60016 1.29492 7.52039 0.968227C6.44063 0.641529 5.28435 0.671324 4.22284 1.0532C3.16133 1.43507 2.25106 2.14871 1.62687 3.0884C1.00268 4.02809 0.697775 5.14384 0.757322 6.27037C0.816868 7.39691 1.2377 8.4743 1.95747 9.34295C2.67725 10.2116 3.65768 10.8253 4.75353 11.0931C5.84938 11.361 7.00236 11.2687 8.04167 10.83" stroke="white" stroke-width="0.5" stroke-linecap="round" stroke-linejoin="round"/>
</g>
<defs>
<clipPath id="clip0_39_13">
<rect width="12" height="12" fill="white"/>
</clipPath>
</defs>
</svg>
