<svg width="11" height="12" viewBox="0 0 11 12" fill="none" xmlns="http://www.w3.org/2000/svg">
<g clip-path="url(#clip0_39_32)">
<path d="M5.66675 7.16663C6.63325 7.16663 7.41675 6.38312 7.41675 5.41663C7.41675 4.45013 6.63325 3.66663 5.66675 3.66663C4.70025 3.66663 3.91675 4.45013 3.91675 5.41663C3.91675 6.38312 4.70025 7.16663 5.66675 7.16663Z" stroke="white" stroke-width="0.5" stroke-linecap="round" stroke-linejoin="round"/>
<path d="M8.96659 8.71653L6.4915 11.1916C6.27274 11.4102 5.97618 11.5329 5.66696 11.5329C5.35774 11.5329 5.06118 11.4102 4.84242 11.1916L2.36675 8.71653C1.71413 8.06388 1.2697 7.23236 1.08965 6.32712C0.909608 5.42188 1.00204 4.48358 1.35525 3.63088C1.70847 2.77817 2.30661 2.04935 3.07403 1.53658C3.84146 1.02381 4.7437 0.750122 5.66667 0.750122C6.58964 0.750122 7.49188 1.02381 8.2593 1.53658C9.02673 2.04935 9.62487 2.77817 9.97808 3.63088C10.3313 4.48358 10.4237 5.42188 10.2437 6.32712C10.0636 7.23236 9.61921 8.06388 8.96659 8.71653V8.71653Z" stroke="white" stroke-width="0.5" stroke-linecap="round" stroke-linejoin="round"/>
</g>
<defs>
<clipPath id="clip0_39_32">
<rect width="11" height="12" fill="white"/>
</clipPath>
</defs>
</svg>
