<svg width="167" height="58" viewBox="0 0 167 58" fill="none" xmlns="http://www.w3.org/2000/svg">
<g clip-path="url(#clip0_59_14)">
<path d="M9.60807 33.4229C10.3138 35.2965 11.2908 36.8986 12.5394 38.229C13.788 39.5596 15.2672 40.5778 16.977 41.2839C18.687 41.9899 20.5461 42.3428 22.5547 42.3428C24.509 42.3428 26.3409 41.9762 28.0509 41.243C29.7609 40.5097 31.2536 39.478 32.5292 38.1475C33.8048 36.8169 34.7956 35.2286 35.5013 33.3821C36.207 31.5356 36.5598 29.4722 36.5598 27.1911V-8H45.1093V49.0225H36.6412V43.7275C34.7413 45.7367 32.502 47.2845 29.9236 48.3709C27.345 49.4569 24.5632 50 21.5776 50C18.5376 50 15.7014 49.4704 13.0686 48.4115C10.4359 47.3525 8.1559 45.8456 6.22899 43.8905C4.30208 41.9353 2.78199 39.5868 1.66927 36.8442C0.556363 34.1017 0 31.047 0 27.6798V-8H8.54957V27.1911C8.54957 29.4722 8.90234 31.5492 9.60807 33.4229Z" fill="white"/>
<path d="M59.8464 -8V12.7724C61.7463 10.8717 63.9449 9.36483 66.4418 8.25143C68.9388 7.13804 71.6531 6.58143 74.5842 6.58143C77.6242 6.58143 80.4738 7.15155 83.1338 8.29199C85.7936 9.43243 88.1005 10.9802 90.0548 12.9354C92.0091 14.8905 93.5562 17.1985 94.6962 19.8595C95.8361 22.5207 96.406 25.3446 96.406 28.3315C96.406 31.3183 95.8361 34.1287 94.6962 36.7625C93.5562 39.3965 92.0091 41.6911 90.0548 43.6459C88.1005 45.601 85.7936 47.1488 83.1338 48.2893C80.4738 49.4297 77.624 49.9998 74.5842 49.9998C71.6529 49.9998 68.9253 49.4432 66.4011 48.3298C63.877 47.2166 61.6648 45.7095 59.7649 43.8088V49.0223H51.6226V-8H59.8464ZM60.7827 33.9522C61.5155 35.6902 62.5334 37.2108 63.8362 38.5142C65.139 39.8175 66.6589 40.8495 68.396 41.6098C70.1331 42.3701 72.0058 42.7502 74.0144 42.7502C75.9687 42.7502 77.8141 42.3701 79.5511 41.6098C81.2882 40.8495 82.7944 39.8177 84.0703 38.5142C85.3459 37.211 86.3637 35.6902 87.1237 33.9522C87.8836 32.2145 88.2636 30.341 88.2636 28.3315C88.2636 26.3221 87.8836 24.4349 87.1237 22.6699C86.3637 20.9049 85.3459 19.3708 84.0703 18.0674C82.7945 16.7642 81.2883 15.7458 79.5511 15.0128C77.8139 14.2797 75.9685 13.9129 74.0144 13.9129C72.0602 13.9129 70.2146 14.2795 68.4776 15.0128C66.7406 15.746 65.2207 16.7642 63.9177 18.0674C62.615 19.3708 61.5836 20.9049 60.8236 22.6699C60.0637 24.4349 59.6837 26.3221 59.6837 28.3315C59.6835 30.341 60.05 32.2145 60.7827 33.9522Z" fill="white"/>
<path d="M101.046 19.9411C102.132 17.3344 103.625 15.04 105.525 13.0578C107.424 11.0756 109.677 9.51425 112.283 8.37382C114.889 7.23338 117.711 6.66325 120.751 6.66325C123.737 6.66325 126.505 7.20634 129.057 8.29235C131.608 9.37853 133.806 10.8856 135.652 12.8135C137.498 14.7413 138.936 17.0223 139.967 19.6561C140.999 22.2901 141.514 25.1548 141.514 28.2504V30.9387H107.723C107.995 32.6222 108.538 34.1835 109.352 35.6224C110.166 37.0615 111.184 38.3107 112.405 39.3696C113.627 40.4288 115.011 41.257 116.558 41.8542C118.105 42.4515 119.747 42.7504 121.484 42.7504C126.424 42.7504 130.414 40.7137 133.454 36.6407L139.398 41.0395C137.335 43.8092 134.784 45.9815 131.744 47.5564C128.704 49.1312 125.284 49.9187 121.484 49.9187C118.39 49.9187 115.5 49.3754 112.813 48.2894C110.125 47.2034 107.791 45.6827 105.81 43.7275C103.829 41.7723 102.268 39.478 101.128 36.8442C99.9883 34.2104 99.4182 31.3455 99.4182 28.2501C99.4179 25.3176 99.9609 22.5479 101.046 19.9411ZM112.487 16.7233C110.18 18.6513 108.646 21.2173 107.886 24.4214H133.209C132.504 21.2173 130.997 18.6513 128.69 16.7233C126.383 14.7956 123.683 13.8316 120.588 13.8316C117.494 13.8316 114.794 14.7956 112.487 16.7233Z" fill="white"/>
<path d="M156.903 17.6601C155.166 19.5608 154.298 22.1403 154.298 25.3989V49.0227H146.074V7.47762H154.216V12.6097C155.248 10.9261 156.591 9.59555 158.247 8.61806C159.902 7.64039 161.87 7.15155 164.15 7.15155H167V14.8089H163.58C160.866 14.8091 158.64 15.7593 156.903 17.6601Z" fill="white"/>
</g>
<defs>
<clipPath id="clip0_59_14">
<rect width="167" height="58" fill="white"/>
</clipPath>
</defs>
</svg>
